<svg xmlns="http://www.w3.org/2000/svg" viewBox="0 0 80 80">
    <circle cx="40" cy="40" r="7.46"/>
    <path d="M57.46,26.8a7.47,7.47,0,0,0-4.25-4.25,12,12,0,0,0-4.16-.77c-2.36-.13-3.07-.13-9-.13v0c-6,0-6.69,0-9,.14a12,12,0,0,0-4.16.77,7.42,7.42,0,0,0-4.2,4.2A12,12,0,0,0,21.82,31c-.14,2.36-.14,3.07-.14,9.05s0,6.69.14,9a12,12,0,0,0,.77,4.16,7.4,7.4,0,0,0,4.2,4.26,12,12,0,0,0,4.16.77c2.36.13,3.06.13,9.05.13s6.69,0,9-.13a12,12,0,0,0,4.16-.77,7.47,7.47,0,0,0,4.25-4.25,12.07,12.07,0,0,0,.77-4.16c.13-2.36.13-3.07.13-9.05s0-6.69-.13-9A12,12,0,0,0,57.46,26.8ZM40,51.5A11.5,11.5,0,1,1,51.5,40,11.5,11.5,0,0,1,40,51.5ZM52,30.74a2.69,2.69,0,1,1,2.69-2.69A2.7,2.7,0,0,1,52,30.74Z"/>
    <path d="M40,0A40,40,0,1,0,80,40,40,40,0,0,0,40,0ZM62.39,49.23a16.56,16.56,0,0,1-1,5.44,11.39,11.39,0,0,1-6.59,6.59,16.58,16.58,0,0,1-5.44,1.05c-2.39.13-3.16.13-9.24.13s-6.84,0-9.23-.13a16.58,16.58,0,0,1-5.44-1.05,11.39,11.39,0,0,1-6.59-6.59,16.67,16.67,0,0,1-1.13-5.35c-.13-2.39-.13-3.16-.13-9.24s0-6.84.13-9.23a16.58,16.58,0,0,1,1-5.44,11.39,11.39,0,0,1,6.59-6.59,16.56,16.56,0,0,1,5.44-1c2.39-.13,3.15-.13,9.23-.13l.08-.09c6.08,0,6.85,0,9.24.13a16.58,16.58,0,0,1,5.44,1,11.39,11.39,0,0,1,6.59,6.59,16.56,16.56,0,0,1,1,5.44c.13,2.39.13,3.15.13,9.23S62.49,46.84,62.39,49.23Z"/>
</svg>