<?xml version="1.0" encoding="UTF-8"?><svg id="a" xmlns="http://www.w3.org/2000/svg" viewBox="0 0 32 32"><circle cx="16" cy="16" r="16" fill="#25d366"/><g><path d="M7.04,25l1.26-4.62c-2.46-4.27-.99-9.73,3.28-12.18,4.27-2.46,9.73-.99,12.18,3.28,2.46,4.27,.99,9.73-3.28,12.18-1.35,.78-2.89,1.19-4.45,1.19h0c-1.49,0-2.96-.37-4.27-1.08l-4.73,1.24Zm4.95-2.85l.27,.16c1.14,.68,2.44,1.03,3.76,1.04h0c4.1,0,7.42-3.32,7.42-7.42,0-1.97-.78-3.85-2.17-5.24-1.38-1.4-3.27-2.18-5.24-2.18-4.1,0-7.42,3.32-7.42,7.42,0,1.39,.39,2.76,1.13,3.94l.18,.28-.75,2.74,2.82-.73Z" fill="#fff"/><path d="M20.53,18.05c-.06-.09-.2-.15-.43-.26-.22-.11-1.32-.65-1.51-.73s-.35-.11-.5,.11c-.15,.23-.58,.72-.71,.87-.13,.15-.26,.17-.48,.06-.66-.26-1.26-.64-1.79-1.11-.49-.45-.91-.97-1.24-1.54-.1-.15-.06-.35,.09-.45h0c.1-.11,.22-.27,.34-.38,.09-.11,.17-.24,.22-.38,.06-.12,.06-.26,0-.38-.06-.11-.5-1.21-.69-1.65s-.38-.38-.5-.38h-.43c-.23,0-.44,.11-.59,.28-.51,.48-.79,1.16-.78,1.86,0,1.1,.8,2.16,.91,2.31s1.57,2.4,3.81,3.37c.42,.18,.84,.34,1.27,.47,.46,.14,.94,.17,1.4,.09,.43-.06,1.32-.54,1.51-1.06,.14-.35,.17-.73,.09-1.1Z" fill="#fff" fill-rule="evenodd"/></g></svg>